<?xml version="1.0" encoding="UTF-8" standalone="no"?>
<svg
   version="1.0"
   width="500.000000pt"
   height="500.000000pt"
   viewBox="0 0 500.000000 500.000000"
   preserveAspectRatio="xMidYMid meet"
   id="svg16"
   sodipodi:docname="ramallahos.svg"
   inkscape:version="1.2.1 (9c6d41e410, 2022-07-14)"
   xmlns:inkscape="http://www.inkscape.org/namespaces/inkscape"
   xmlns:sodipodi="http://sodipodi.sourceforge.net/DTD/sodipodi-0.dtd"
   xmlns="http://www.w3.org/2000/svg"
   xmlns:svg="http://www.w3.org/2000/svg">
  <defs
     id="defs20" />
  <sodipodi:namedview
     id="namedview18"
     pagecolor="#ffffff"
     bordercolor="#000000"
     borderopacity="0.25"
     inkscape:showpageshadow="2"
     inkscape:pageopacity="0.0"
     inkscape:pagecheckerboard="0"
     inkscape:deskcolor="#d1d1d1"
     inkscape:document-units="pt"
     showgrid="false"
     inkscape:zoom="1.302"
     inkscape:cx="315.28418"
     inkscape:cy="333.33333"
     inkscape:window-width="1920"
     inkscape:window-height="1046"
     inkscape:window-x="0"
     inkscape:window-y="34"
     inkscape:window-maximized="1"
     inkscape:current-layer="g14" />
  <g
     transform="translate(0.000000,500.000000) scale(0.100000,-0.100000)"
     fill="#82D4BB"
     stroke="none"
     id="g14">
    <path
       d="M 6.8942303,256.99352 C 1673.5609,256.99352 3342.542,1662.9682 5009.2087,1662.9682 5009.2087,3329.6349 5000,3333.3333 5000,5000 3333.3333,5000 1676.3759,3589.1388 9.7091956,3589.1388 9.7091956,1922.4721 6.8942303,1923.6602 6.8942303,256.99352 Z M 2820,3499 c 217,-32 411,-144 525,-304 75,-105 113,-211 129,-357 l 6,-58 h -163 -164 l -6,93 c -8,122 -29,202 -84,316 -100,208 -272,307 -488,280 -236,-30 -403,-250 -438,-581 l -11,-108 h -158 -158 v 40 c 0,186 120,415 274,525 202,144 448,195 736,154 z m 1436,-18 c 31,-11 77,-32 102,-47 53,-30 208,-183 234,-231 l 18,-31 -100,-41 c -54,-22 -101,-41 -104,-41 -2,0 -14,30 -26,67 -69,214 -179,315 -343,315 -159,0 -250,-90 -217,-213 17,-62 80,-117 319,-279 116,-78 227,-155 247,-171 l 37,-29 h -232 -232 l -72,54 c -100,75 -183,165 -213,231 -20,42 -25,71 -26,129 0,142 68,235 213,290 98,37 284,35 395,-3 z m -3209,-12 c 184,-20 313,-78 379,-168 42,-59 59,-118 58,-211 -1,-121 -47,-207 -147,-271 l -60,-39 H 1137 997 l 44,23 c 99,53 144,157 137,321 -3,86 -8,110 -31,158 -54,109 -128,147 -304,155 l -113,6 V 3111 2780 H 581 432 l -5,328 c -3,180 -8,337 -12,350 l -7,22 h 271 c 150,0 315,-5 368,-11 z m 370,-885 c 3,-8 0,-26 -7,-39 -11,-20 -11,-27 0,-40 8,-9 8,-15 2,-15 -6,0 -14,9 -17,20 -3,11 -15,20 -26,20 -12,0 -19,-7 -19,-20 0,-11 -4,-20 -10,-20 -5,0 -10,25 -10,55 v 55 h 40 c 28,0 43,-5 47,-16 z m 241,-36 c 12,-28 20,-54 17,-56 -2,-3 -7,3 -11,12 -8,22 -63,21 -80,-1 -12,-16 -13,-15 -4,10 15,43 40,87 48,87 5,0 18,-23 30,-52 z m 212,22 c 18,-44 28,-45 47,-6 9,20 20,36 25,36 4,0 7,-26 6,-57 l -1,-58 -7,45 -6,45 -13,-32 c -7,-18 -17,-33 -22,-33 -5,0 -16,15 -26,33 l -18,32 -6,-45 -6,-45 -1,58 c -2,63 9,73 28,27 z m 328,-22 c 12,-28 20,-54 17,-56 -2,-3 -7,3 -11,12 -8,22 -63,21 -80,-1 -12,-16 -13,-15 -4,10 15,43 40,87 48,87 5,0 18,-23 30,-52 z m 222,-49 c 23,-6 22,-7 -7,-8 l -33,-1 2,58 1,57 6,-50 c 5,-42 10,-50 31,-56 z m 220,0 c 23,-6 22,-7 -7,-8 l -33,-1 2,58 1,57 6,-50 c 5,-42 10,-50 31,-56 z m 256,43 c 13,-29 19,-52 15,-52 -5,0 -11,7 -15,15 -8,21 -62,19 -75,-2 -20,-34 -11,7 11,52 12,25 26,44 32,42 5,-2 19,-26 32,-55 z m 194,33 c 0,-21 5,-25 30,-25 25,0 30,4 30,25 0,14 5,25 10,25 6,0 10,-25 10,-55 0,-30 -4,-55 -10,-55 -5,0 -10,11 -10,25 0,21 -5,25 -30,25 -25,0 -30,-4 -30,-25 0,-14 -4,-25 -10,-25 -5,0 -10,25 -10,55 0,30 5,55 10,55 6,0 10,-11 10,-25 z m 335,9 c 23,-24 15,-66 -16,-83 -24,-13 -29,-13 -53,2 -28,19 -36,63 -14,85 17,17 64,15 83,-4 z m 245,7 c 0,-4 -11,-6 -24,-4 -36,7 -41,-14 -6,-32 34,-18 40,-50 10,-60 -10,-3 -28,-1 -40,5 -27,15 -25,22 3,11 14,-6 29,-5 38,0 15,10 9,17 -37,45 -27,16 -11,44 26,44 16,0 30,-4 30,-9 z M 734,2228 c 3,-13 7,-53 10,-90 l 5,-68 H 580 411 l 5,58 c 3,31 7,72 10,90 l 5,32 h 149 c 147,0 150,0 154,-22 z m 794,-36 c 58,-59 106,-82 171,-82 25,0 31,-4 31,-22 0,-21 -2,-21 -122,-15 -203,10 -318,49 -403,136 l -39,41 h 152 152 z m 799,9 c 172,-166 452,-167 627,-1 l 53,50 h 124 l 124,-1 -40,-34 c -54,-47 -203,-120 -295,-145 -216,-58 -494,-40 -683,44 -59,26 -191,109 -202,127 -4,5 43,9 118,9 h 123 z m 1637,-6 c 80,-80 166,-119 265,-119 54,1 89,6 121,21 53,23 105,79 115,122 l 7,31 h 69 70 l -23,-42 c -69,-123 -263,-193 -469,-168 -150,18 -262,68 -361,160 l -53,49 102,1 h 102 z"
       id="path2"
       sodipodi:nodetypes="ccccccccccccccccccscccccccscsccccccscccccccccccccccccccccccsccccsssssscsccccccscccscccccscccccccccccscccccccccccccccssccccsssssssssssssscccscscccccccssccccccccsccsscccccccccccccccsccsccccccccccccs" />
    <path
       d="M1350 2565 c0 -23 4 -26 28 -23 19 2 27 9 27 23 0 14 -8 21 -27 23 -24 3 -28 0 -28 -23z"
       id="path4" />
    <path
       d="M1611 2562 c-16 -29 -14 -32 14 -32 28 0 31 8 11 35 -13 18 -14 18 -25 -3z"
       id="path6" />
    <path
       d="M2151 2562 c-16 -29 -14 -32 14 -32 28 0 31 8 11 35 -13 18 -14 18 -25 -3z"
       id="path8" />
    <path
       d="M2846 2564 c-10 -26 -7 -34 14 -34 11 0 20 4 20 9 0 17 -12 41 -20 41 -4 0 -11 -7 -14 -16z"
       id="path10" />
    <path
       d="M3350 2575 c-17 -20 -5 -62 21 -70 24 -8 59 19 59 45 0 37 -55 55 -80 25z"
       id="path12" />
  </g>
</svg>
